# xmcd
#
# Track frame offsets: 
#        150
#        34408
#        53324
#        70547
#        93288
#        112963
#        144967
#        167233
#        190422
#        208049
#        227212
#        246105
#        272312
#
# Disc length: 3896 seconds
#
# Revision: 0
# Processed by: cddbd v1.5.2PL0 Copyright (c) Steve Scherf et al.
# Submitted via: ExactAudioCopy v0.99pb4
#
DISCID=a90f360d
DTITLE=Various Artist - Harmonica Blowoff Vol I - Live At Styleen's
DYEAR=1996
DGENRE=Blues
TTITLE0=Pete McMahon - Don't Turn Me From Your Door
TTITLE1=Nick Langan - Everything's Gonna Be Alright
TTITLE2=Curtis Waterman and Colin Aberdeen - Troubles
TTITLE3=John Schuster - Tricky Woman
TTITLE4=Rick Bush - You Know It Ain't Right
TTITLE5=Tom Townsley - Summertime
TTITLE6=Bernie Clark - New Backscratch
TTITLE7=Seth Holzman and Gary Gogdell - Fishin
TTITLE8=Kenny O'Brien (K.O.B.) - Garbage Man
TTITLE9=John Debuc - Riffin' And Riffin'
TTITLE10=Bob Bogdal - Backdoor Man
TTITLE11=Mike Petroff - Trust Me Baby
TTITLE12=Skip Murphy - Sunshine Karry
EXTD=
EXTT0=
EXTT1=
EXTT2=
EXTT3=
EXTT4=
EXTT5=
EXTT6=
EXTT7=
EXTT8=
EXTT9=
EXTT10=
EXTT11=
EXTT12=
PLAYORDER=
